<svg width="39" height="24" viewBox="0 0 39 24" fill="none" xmlns="http://www.w3.org/2000/svg">
<path d="M38.0781 12.1484C38.0781 13.8411 37.7891 15.099 37.2109 15.9219C36.6328 16.7448 35.7292 17.1562 34.5 17.1562C33.2865 17.1562 32.388 16.7552 31.8047 15.9531C31.2214 15.1458 30.9193 13.9427 30.8984 12.3438V10.4141C30.8984 8.74219 31.1875 7.5 31.7656 6.6875C32.3438 5.875 33.25 5.46875 34.4844 5.46875C35.7083 5.46875 36.6094 5.86198 37.1875 6.64844C37.7656 7.42969 38.0625 8.63802 38.0781 10.2734V12.1484ZM36.6328 10.1719C36.6328 8.94792 36.4609 8.05729 36.1172 7.5C35.7734 6.9375 35.2292 6.65625 34.4844 6.65625C33.7448 6.65625 33.2057 6.9349 32.8672 7.49219C32.5286 8.04948 32.3542 8.90625 32.3438 10.0625V12.375C32.3438 13.6042 32.5208 14.513 32.875 15.1016C33.2344 15.6849 33.776 15.9766 34.5 15.9766C35.2135 15.9766 35.7422 15.7005 36.0859 15.1484C36.4349 14.5964 36.6172 13.7266 36.6328 12.5391V10.1719Z" fill="#BDBDBD"/>
<path fill-rule="evenodd" clip-rule="evenodd" d="M3 11.5C2.99656 12.8199 3.30493 14.1219 3.9 15.3C5.33904 18.1793 8.28109 19.9988 11.5 20C12.8199 20.0034 14.1219 19.6951 15.3 19.1L21 21L19.1 15.3C19.6951 14.1219 20.0034 12.8199 20 11.5C19.9988 8.28109 18.1793 5.33904 15.3 3.9C14.1219 3.30493 12.8199 2.99656 11.5 3H11C6.68419 3.2381 3.2381 6.68419 3 11V11.5V11.5Z" stroke="#BDBDBD" stroke-linecap="round" stroke-linejoin="round"/>
</svg>
